HIERARCHY
ROOT Root
{
  OFFSET 0.0 0.0 0.0
  CHANNELS 6 Xposition Yposition Zposition Zrotation Yrotation Xrotation
  JOINT Hips
  {
    OFFSET 0.0 100.0 0.0
    CHANNELS 6 Xposition Yposition Zposition Zrotation Yrotation Xrotation
    JOINT Spine1
    {
      OFFSET 5.003913 -0.037094 -0.013727
      CHANNELS 3 Zrotation Yrotation Xrotation
      JOINT Spine2
      {
        OFFSET 7.125363 -1e-06 0.0
        CHANNELS 3 Zrotation Yrotation Xrotation
        JOINT Chest
        {
          OFFSET 7.594027 1e-06 0.0
          CHANNELS 3 Zrotation Yrotation Xrotation
          JOINT Neck1
          {
            OFFSET 26.313086 -0.460272 -0.181672
            CHANNELS 3 Zrotation Yrotation Xrotation
            JOINT Neck2
            {
              OFFSET 8.045911 0.0 0.0
              CHANNELS 3 Zrotation Yrotation Xrotation
              JOINT Head
              {
                OFFSET 6.432774 0.0 0.0
                CHANNELS 3 Zrotation Yrotation Xrotation
                JOINT HeadEnd
                {
                  OFFSET 16.169773 0.06451 0.00362
                  CHANNELS 3 Zrotation Yrotation Xrotation
                }
                JOINT Jaw
                {
                  OFFSET 0.108741 3.12938 0.002639
                  CHANNELS 3 Zrotation Yrotation Xrotation
                }
                JOINT LeftEye
                {
                  OFFSET 4.45173 8.166359 3.206392
                  CHANNELS 3 Zrotation Yrotation Xrotation
                }
                JOINT RightEye
                {
                  OFFSET 4.436895 8.135758 -3.222429
                  CHANNELS 3 Zrotation Yrotation Xrotation
                }
              }
            }
          }
          JOINT LeftShoulder
          {
            OFFSET 23.218927 5.195579 1.621656
            CHANNELS 3 Zrotation Yrotation Xrotation
            JOINT LeftArm
            {
              OFFSET 15.902118 2e-06 -2e-06
              CHANNELS 3 Zrotation Yrotation Xrotation
              JOINT LeftForeArm
              {
                OFFSET 28.739307 0.0 -1e-06
                CHANNELS 3 Zrotation Yrotation Xrotation
                JOINT LeftHand
                {
                  OFFSET 27.093981 -4e-06 0.0
                  CHANNELS 3 Zrotation Yrotation Xrotation
                  JOINT LeftHandThumb1
                  {
                    OFFSET 2.276781 3.380274 0.83384
                    CHANNELS 3 Zrotation Yrotation Xrotation
                    JOINT LeftHandThumb2
                    {
                      OFFSET 4.705309 -1e-06 -1e-06
                      CHANNELS 3 Zrotation Yrotation Xrotation
                      JOINT LeftHandThumb3
                      {
                        OFFSET 2.798515 0.0 3e-06
                        CHANNELS 3 Zrotation Yrotation Xrotation
                        JOINT LeftHandThumbEnd
                        {
                          OFFSET 3.180793 4e-06 -4e-06
                          CHANNELS 3 Zrotation Yrotation Xrotation
                        }
                      }
                    }
                  }
                  JOINT LeftHandIndex1
                  {
                    OFFSET 3.247786 2.352677 0.137192
                    CHANNELS 3 Zrotation Yrotation Xrotation
                    JOINT LeftHandIndex2
                    {
                      OFFSET 6.367095 1e-06 0.0
                      CHANNELS 3 Zrotation Yrotation Xrotation
                      JOINT LeftHandIndex3
                      {
                        OFFSET 3.662364 0.0 0.0
                        CHANNELS 3 Zrotation Yrotation Xrotation
                        JOINT LeftHandIndex4
                        {
                          OFFSET 2.329242 4e-06 -4e-06
                          CHANNELS 3 Zrotation Yrotation Xrotation
                          JOINT LeftHandIndexEnd
                          {
                            OFFSET 2.767823 1e-06 0.0
                            CHANNELS 3 Zrotation Yrotation Xrotation
                          }
                        }
                      }
                    }
                  }
                  JOINT LeftHandMiddle1
                  {
                    OFFSET 3.163612 0.945023 -0.406112
                    CHANNELS 3 Zrotation Yrotation Xrotation
                    JOINT LeftHandMiddle2
                    {
                      OFFSET 6.276789 3e-06 0.0
                      CHANNELS 3 Zrotation Yrotation Xrotation
                      JOINT LeftHandMiddle3
                      {
                        OFFSET 4.35652 -1e-06 4e-06
                        CHANNELS 3 Zrotation Yrotation Xrotation
                        JOINT LeftHandMiddle4
                        {
                          OFFSET 2.996877 0.0 8e-06
                          CHANNELS 3 Zrotation Yrotation Xrotation
                          JOINT LeftHandMiddleEnd
                          {
                            OFFSET 2.323256 3e-06 -4e-06
                            CHANNELS 3 Zrotation Yrotation Xrotation
                          }
                        }
                      }
                    }
                  }
                  JOINT LeftHandRing1
                  {
                    OFFSET 2.882606 -0.309162 0.107445
                    CHANNELS 3 Zrotation Yrotation Xrotation
                    JOINT LeftHandRing2
                    {
                      OFFSET 6.033198 0.0 4e-06
                      CHANNELS 3 Zrotation Yrotation Xrotation
                      JOINT LeftHandRing3
                      {
                        OFFSET 4.350578 3e-06 0.0
                        CHANNELS 3 Zrotation Yrotation Xrotation
                        JOINT LeftHandRing4
                        {
                          OFFSET 2.651321 2e-06 -7e-06
                          CHANNELS 3 Zrotation Yrotation Xrotation
                          JOINT LeftHandRingEnd
                          {
                            OFFSET 1.937663 1e-06 -4e-06
                            CHANNELS 3 Zrotation Yrotation Xrotation
                          }
                        }
                      }
                    }
                  }
                  JOINT LeftHandPinky1
                  {
                    OFFSET 2.865315 -1.525436 0.575687
                    CHANNELS 3 Zrotation Yrotation Xrotation
                    JOINT LeftHandPinky2
                    {
                      OFFSET 5.54936 1e-06 -8e-06
                      CHANNELS 3 Zrotation Yrotation Xrotation
                      JOINT LeftHandPinky3
                      {
                        OFFSET 3.070974 0.0 -4e-06
                        CHANNELS 3 Zrotation Yrotation Xrotation
                        JOINT LeftHandPinky4
                        {
                          OFFSET 1.549672 1e-06 0.0
                          CHANNELS 3 Zrotation Yrotation Xrotation
                          JOINT LeftHandPinkyEnd
                          {
                            OFFSET 1.952123 0.0 0.0
                            CHANNELS 3 Zrotation Yrotation Xrotation
                          }
                        }
                      }
                    }
                  }
                }
              }
            }
          }
          JOINT RightShoulder
          {
            OFFSET 23.161716 5.296122 -1.380114
            CHANNELS 3 Zrotation Yrotation Xrotation
            JOINT RightArm
            {
              OFFSET -16.027195 -2e-06 1.1e-05
              CHANNELS 3 Zrotation Yrotation Xrotation
              JOINT RightForeArm
              {
                OFFSET -28.736639 4e-06 2e-06
                CHANNELS 3 Zrotation Yrotation Xrotation
                JOINT RightHand
                {
                  OFFSET -27.133619 6e-06 0.0
                  CHANNELS 3 Zrotation Yrotation Xrotation
                  JOINT RightHandThumb1
                  {
                    OFFSET -2.274328 -3.351035 -0.83067
                    CHANNELS 3 Zrotation Yrotation Xrotation
                    JOINT RightHandThumb2
                    {
                      OFFSET -4.703594 -3e-06 2e-06
                      CHANNELS 3 Zrotation Yrotation Xrotation
                      JOINT RightHandThumb3
                      {
                        OFFSET -2.794935 -4e-06 -3e-06
                        CHANNELS 3 Zrotation Yrotation Xrotation
                        JOINT RightHandThumbEnd
                        {
                          OFFSET -3.183852 4e-06 1e-06
                          CHANNELS 3 Zrotation Yrotation Xrotation
                        }
                      }
                    }
                  }
                  JOINT RightHandIndex1
                  {
                    OFFSET -3.253496 -2.33755 -0.127667
                    CHANNELS 3 Zrotation Yrotation Xrotation
                    JOINT RightHandIndex2
                    {
                      OFFSET -6.344434 0.0 0.0
                      CHANNELS 3 Zrotation Yrotation Xrotation
                      JOINT RightHandIndex3
                      {
                        OFFSET -3.654871 0.0 -8e-06
                        CHANNELS 3 Zrotation Yrotation Xrotation
                        JOINT RightHandIndex4
                        {
                          OFFSET -2.327586 -1e-06 0.0
                          CHANNELS 3 Zrotation Yrotation Xrotation
                          JOINT RightHandIndexEnd
                          {
                            OFFSET -2.770001 3e-06 8e-06
                            CHANNELS 3 Zrotation Yrotation Xrotation
                          }
                        }
                      }
                    }
                  }
                  JOINT RightHandMiddle1
                  {
                    OFFSET -3.168223 -0.944764 0.411762
                    CHANNELS 3 Zrotation Yrotation Xrotation
                    JOINT RightHandMiddle2
                    {
                      OFFSET -6.266691 -1e-06 -4e-06
                      CHANNELS 3 Zrotation Yrotation Xrotation
                      JOINT RightHandMiddle3
                      {
                        OFFSET -4.348901 0.0 0.0
                        CHANNELS 3 Zrotation Yrotation Xrotation
                        JOINT RightHandMiddle4
                        {
                          OFFSET -3.00024 2e-06 -4e-06
                          CHANNELS 3 Zrotation Yrotation Xrotation
                          JOINT RightHandMiddleEnd
                          {
                            OFFSET -2.321477 -4e-06 -4e-06
                            CHANNELS 3 Zrotation Yrotation Xrotation
                          }
                        }
                      }
                    }
                  }
                  JOINT RightHandRing1
                  {
                    OFFSET -2.885654 0.293261 -0.119232
                    CHANNELS 3 Zrotation Yrotation Xrotation
                    JOINT RightHandRing2
                    {
                      OFFSET -6.032835 -1e-06 -4e-06
                      CHANNELS 3 Zrotation Yrotation Xrotation
                      JOINT RightHandRing3
                      {
                        OFFSET -4.33881 0.0 -4e-06
                        CHANNELS 3 Zrotation Yrotation Xrotation
                        JOINT RightHandRing4
                        {
                          OFFSET -2.654903 -4e-06 -4e-06
                          CHANNELS 3 Zrotation Yrotation Xrotation
                          JOINT RightHandRingEnd
                          {
                            OFFSET -1.935122 0.0 4e-06
                            CHANNELS 3 Zrotation Yrotation Xrotation
                          }
                        }
                      }
                    }
                  }
                  JOINT RightHandPinky1
                  {
                    OFFSET -2.866241 1.503904 -0.60527
                    CHANNELS 3 Zrotation Yrotation Xrotation
                    JOINT RightHandPinky2
                    {
                      OFFSET -5.553177 -2e-06 0.0
                      CHANNELS 3 Zrotation Yrotation Xrotation
                      JOINT RightHandPinky3
                      {
                        OFFSET -3.062664 -1e-06 -4e-06
                        CHANNELS 3 Zrotation Yrotation Xrotation
                        JOINT RightHandPinky4
                        {
                          OFFSET -1.546529 2e-06 4e-06
                          CHANNELS 3 Zrotation Yrotation Xrotation
                          JOINT RightHandPinkyEnd
                          {
                            OFFSET -1.952341 0.0 -4e-06
                            CHANNELS 3 Zrotation Yrotation Xrotation
                          }
                        }
                      }
                    }
                  }
                }
              }
            }
          }
        }
      }
    }
    JOINT LeftLeg
    {
      OFFSET -8.443107 2.567604 10.043214
      CHANNELS 3 Zrotation Yrotation Xrotation
      JOINT LeftShin
      {
        OFFSET 43.229198 1e-06 -1e-06
        CHANNELS 3 Zrotation Yrotation Xrotation
        JOINT LeftFoot
        {
          OFFSET 42.298611 1e-06 1e-06
          CHANNELS 3 Zrotation Yrotation Xrotation
          JOINT LeftToeBase
          {
            OFFSET 14.165858 1e-06 0.0
            CHANNELS 3 Zrotation Yrotation Xrotation
            JOINT LeftToeEnd
            {
              OFFSET 6.7141 -0.234461 0.0
              CHANNELS 3 Zrotation Yrotation Xrotation
            }
          }
        }
      }
    }
    JOINT RightLeg
    {
      OFFSET -8.303923 2.592729 -10.047278
      CHANNELS 3 Zrotation Yrotation Xrotation
      JOINT RightShin
      {
        OFFSET -43.369682 0.0 1e-06
        CHANNELS 3 Zrotation Yrotation Xrotation
        JOINT RightFoot
        {
          OFFSET -42.260784 4e-06 2e-06
          CHANNELS 3 Zrotation Yrotation Xrotation
          JOINT RightToeBase
          {
            OFFSET -14.222245 -2e-06 -1e-06
            CHANNELS 3 Zrotation Yrotation Xrotation
            JOINT RightToeEnd
            {
              OFFSET -6.660062 0.232574 -2e-06
              CHANNELS 3 Zrotation Yrotation Xrotation
            }
          }
        }
      }
    }
  }
}
MOTION
Frames: 4
Frame Time: 0.03333333333333333
0.0 0.0 0.0 0.0 -0.0 0.0 8.276793 13.943041 -24.458378 85.763268 43.310585 89.769936 16.904814 -1.690107 0.243742 0.694774 -0.559196 -0.964944 38.105682 3.992118 -1.64421 14.838552 0.3964 2.223007 -2.339068 -0.654869 0.46658 -35.485222 0.873722 -0.382066 5e-06 0.0 0.0 0.142457 0.023385 0.114832 0.110132 0.117353 0.170428 0.103509 -0.069277 0.086174 -79.706497 -81.925591 88.408066 71.770782 -39.094833 -42.290043 81.636223 0.703878 -0.629697 -43.034966 -4.524658 72.898163 17.636635 -26.322737 52.411213 -19.466665 -14.3956 29.410395 2e-06 -8.774824 -1e-06 16.647022 -16.996498 5.167253 -0.609777 -1.795654 -3.889328 -4.807092 -11.046811 -2.93785 2e-06 -20.976019 -0.0 -5.019974 -25.03356 -4.031884 5e-06 0.0 -0.0 -10.634539 -5.686972 -3.565587 10.573277 -17.922955 -3.113902 1e-06 -13.821211 2e-06 -0.50178 -31.181511 -4.027019 -11.774437 -59.459312 7.321648 -13.982719 -7.150201 -2.875041 13.772736 -8.401493 -3.218243 0.347731 -34.211559 0.771655 -0.96303 -17.733376 2.621019 0.0 1e-06 0.0 -17.346426 -20.095222 -4.201782 21.757566 -1.638373 3.866429 -1e-06 -6.338823 -0.0 -1.697592 -22.591747 -6.194007 0.0 -2e-06 -1e-06 9.308693 -80.468857 -178.26709 70.04248 -30.893797 -36.178322 71.479378 1.762089 -0.288514 -19.932207 7.587784 55.322575 22.182121 -20.375904 49.933331 -16.701818 -16.743536 28.476542 -2e-06 -12.690605 -0.0 15.734402 -17.715612 2.704618 -0.10592 -1.513856 -4.275883 -5.039042 -5.61287 -2.953557 5e-06 -11.020525 -2e-06 -6.111299 -15.89533 -3.840471 -0.0 -0.0 -0.0 -10.283373 -5.680288 -4.341839 11.028299 -11.302406 -2.372633 -1.384269 -14.238581 -6.320124 -0.625437 -26.924194 -3.827601 -4.334267 -49.410141 -3.559268 -13.708527 -7.363476 -3.720941 18.141155 -14.05274 -3.242675 6e-06 -18.78727 -0.0 -0.429712 -8.456045 2.555504 0.0 -2e-06 0.0 -15.923539 -20.094482 -5.473587 30.419228 -7.190827 1.735927 3e-06 -8.162925 1e-06 -1.861903 -22.861469 -6.167941 -1e-06 -3e-06 -1e-06 95.340157 -23.934216 -48.486305 140.592468 0.449172 1.409108 -38.083954 1.522583 -38.473812 -19.438641 1.810491 1.476249 -0.999998 0.0 0.0 -76.345932 -27.512606 -55.089603 137.897217 2.084598 2.072747 -28.933187 6.523745 -33.908363 -12.806215 0.720249 0.224831 -1.000005 -0.0 -1e-06 
0.0 0.0 0.0 0.0 -0.0 0.0 8.263264 13.952237 -24.457056 85.753273 43.31773 89.756599 16.902571 -1.689417 0.260704 0.680736 -0.55341 -0.940104 38.129257 3.992562 -1.67476 14.892497 0.370034 2.228437 -2.338065 -0.682079 0.415277 -35.481777 0.84408 -0.379205 6e-06 0.0 -0.0 0.144753 0.024582 0.118298 0.123413 0.118337 0.17694 0.118966 -0.067978 0.086668 -79.604759 -81.947212 88.33403 71.789444 -39.074512 -42.380783 81.654442 0.702199 -0.668171 -43.105576 -4.495599 72.944084 17.636631 -26.322729 52.411186 -19.46666 -14.395596 29.410389 1e-06 -8.774822 -3e-06 16.631065 -17.000265 5.16833 -0.609776 -1.795653 -3.889328 -4.80709 -11.046813 -2.93785 4e-06 -20.976019 -1e-06 -5.019971 -25.03356 -4.031882 6e-06 0.0 -0.0 -10.634535 -5.686971 -3.565588 10.573272 -17.922955 -3.113902 3e-06 -13.821209 1e-06 -0.501777 -31.181505 -4.027016 -11.784512 -59.481747 7.316403 -13.982716 -7.150199 -2.875043 13.772731 -8.401493 -3.218241 0.347734 -34.211559 0.771652 -0.963028 -17.733374 2.621018 0.0 1e-06 1e-06 -17.34642 -20.095221 -4.201782 21.757557 -1.638372 3.866427 1e-06 -6.338824 0.0 -1.697589 -22.591747 -6.194008 0.0 -4e-06 -2e-06 9.483795 -80.449944 -178.432236 70.053986 -30.859444 -36.238964 71.456688 1.705176 -0.302028 -20.034872 7.59442 55.300621 22.182114 -20.3759 49.933323 -16.701817 -16.74353 28.476534 -3e-06 -12.690601 0.0 15.764978 -17.728149 2.698367 -0.105919 -1.513856 -4.275882 -5.039041 -5.61287 -2.953556 5e-06 -11.020525 -2e-06 -6.111297 -15.89533 -3.840471 -0.0 1e-06 0.0 -10.283369 -5.680288 -4.341839 11.028296 -11.302406 -2.372633 -1.384267 -14.238581 -6.320122 -0.625437 -26.924189 -3.8276 -4.319121 -49.416351 -3.571004 -13.708524 -7.363476 -3.720939 18.141153 -14.052739 -3.242676 7e-06 -18.78727 -1e-06 -0.429712 -8.456042 2.555504 -0.0 -0.0 0.0 -15.923536 -20.094481 -5.473586 30.419218 -7.190829 1.735925 3e-06 -8.162926 2e-06 -1.861903 -22.861469 -6.167942 -1e-06 -2e-06 -1e-06 95.357079 -23.966085 -48.468708 140.606537 0.444525 1.392257 -38.073986 1.55331 -38.451221 -19.412043 1.815459 1.469506 -1.0 -0.0 1e-06 -76.330925 -27.466002 -55.098255 137.884842 2.079309 2.079578 -29.032255 6.502113 -33.967754 -12.8097 0.723553 0.216693 -1.000004 -1e-06 -1e-06 
0.0 0.0 0.0 0.0 -0.0 0.0 8.239922 13.948488 -24.437561 85.747559 43.319748 89.738625 16.891142 -1.689653 0.273707 0.671142 -0.554374 -0.921396 38.166904 3.988743 -1.69595 14.940216 0.352073 2.208408 -2.336286 -0.703417 0.409734 -35.475163 0.791375 -0.363865 6e-06 0.0 0.0 0.14835 0.025085 0.121452 0.134673 0.115621 0.182087 0.131573 -0.064367 0.087705 -79.434822 -81.959358 88.181931 71.818924 -39.057667 -42.439384 81.675774 0.743306 -0.712191 -43.159649 -4.477135 72.970757 17.636629 -26.322733 52.411182 -19.466658 -14.395594 29.410381 3e-06 -8.774819 -3e-06 16.612772 -17.011753 5.163343 -0.609776 -1.795654 -3.889327 -4.807089 -11.046807 -2.93785 4e-06 -20.976013 -0.0 -5.019972 -25.033554 -4.03188 6e-06 0.0 -0.0 -10.634531 -5.686972 -3.565588 10.57327 -17.922945 -3.113899 3e-06 -13.821204 2e-06 -0.501778 -31.181498 -4.027014 -11.806945 -59.473751 7.310247 -13.982711 -7.150198 -2.875042 13.772725 -8.401488 -3.21824 0.347733 -34.211552 0.771655 -0.96303 -17.73337 2.621021 0.0 0.0 0.0 -17.346415 -20.095213 -4.201781 21.757555 -1.638375 3.866427 1e-06 -6.338822 1e-06 -1.69759 -22.591742 -6.194004 -0.0 -3e-06 -2e-06 9.641415 -80.435974 -178.595047 70.064308 -30.835392 -36.300831 71.441544 1.650277 -0.327824 -20.087996 7.571639 55.234169 22.182114 -20.375895 49.933323 -16.701809 -16.743528 28.47653 -2e-06 -12.690599 -1e-06 15.82333 -17.739805 2.681974 -0.10592 -1.513857 -4.27588 -5.039041 -5.612871 -2.953557 4e-06 -11.020523 -2e-06 -6.111297 -15.89533 -3.840471 -0.0 -1e-06 1e-06 -10.283369 -5.680289 -4.341839 11.028291 -11.302404 -2.372632 -1.384269 -14.238579 -6.320122 -0.625439 -26.924187 -3.827601 -4.300044 -49.417141 -3.593172 -13.708523 -7.363475 -3.720939 18.141146 -14.052739 -3.242674 6e-06 -18.787266 -2e-06 -0.429712 -8.456045 2.555503 -1e-06 -1e-06 -0.0 -15.923534 -20.094484 -5.473586 30.41921 -7.190823 1.735928 2e-06 -8.162922 1e-06 -1.8619 -22.861469 -6.167944 -0.0 -2e-06 -1e-06 95.337173 -24.012493 -48.443348 140.651199 0.446687 1.372479 -38.060333 1.587707 -38.437973 -19.33032 1.827571 1.462981 -0.999998 1e-06 0.0 -76.319679 -27.40925 -55.132259 137.88916 2.082774 2.073441 -29.168604 6.444245 -34.052296 -12.784982 0.732646 0.209933 -1.000006 -1e-06 -2e-06 
0.0 0.0 0.0 0.0 -0.0 0.0 8.214642 13.947373 -24.409679 85.737587 43.320381 89.710197 16.886854 -1.694219 0.27773 0.670344 -0.557917 -0.915663 38.200493 3.97218 -1.69872 15.003246 0.330261 2.184993 -2.344543 -0.706641 0.435354 -35.472496 0.744901 -0.322127 6e-06 -0.0 0.0 0.149784 0.023418 0.117728 0.135007 0.11102 0.178915 0.134399 -0.063271 0.083211 -79.30764 -81.951988 88.056908 71.828224 -39.054806 -42.443325 81.716896 0.809191 -0.725652 -43.202663 -4.490695 72.937477 17.636629 -26.322737 52.411194 -19.466661 -14.395596 29.410389 1e-06 -8.774821 -2e-06 16.595242 -17.031296 5.15712 -0.609776 -1.795654 -3.889327 -4.80709 -11.046813 -2.937849 4e-06 -20.976019 0.0 -5.019973 -25.03356 -4.031878 6e-06 0.0 0.0 -10.634535 -5.686971 -3.565587 10.573275 -17.922951 -3.1139 2e-06 -13.821211 2e-06 -0.501778 -31.181511 -4.027017 -11.834321 -59.456551 7.306898 -13.982714 -7.150199 -2.875041 13.772731 -8.401495 -3.218241 0.347734 -34.211559 0.771655 -0.963028 -17.733374 2.621019 0.0 0.0 2e-06 -17.346418 -20.095222 -4.201779 21.757559 -1.638372 3.866427 1e-06 -6.338823 0.0 -1.697589 -22.591753 -6.194004 -0.0 -2e-06 -2e-06 9.803898 -80.438789 -178.75824 70.090164 -30.822014 -36.330231 71.438866 1.626539 -0.348592 -20.088924 7.533212 55.0947 22.182112 -20.375893 49.933327 -16.701818 -16.743532 28.476536 -3e-06 -12.690603 -0.0 15.868948 -17.742943 2.668447 -0.105919 -1.513857 -4.275881 -5.03904 -5.612868 -2.953557 5e-06 -11.020526 -2e-06 -6.111296 -15.895334 -3.84047 -0.0 1e-06 0.0 -10.283371 -5.680287 -4.341839 11.028297 -11.302405 -2.372634 -1.384268 -14.238578 -6.320122 -0.625436 -26.924189 -3.827602 -4.287577 -49.429539 -3.603963 -13.708524 -7.363475 -3.720939 18.141153 -14.052739 -3.242677 7e-06 -18.787266 -2e-06 -0.429712 -8.456044 2.555504 -0.0 -0.0 -0.0 -15.923531 -20.094481 -5.473587 30.419218 -7.190827 1.735924 3e-06 -8.162925 1e-06 -1.8619 -22.861471 -6.167943 -1e-06 -3e-06 -1e-06 95.314812 -24.063736 -48.400688 140.709442 0.455595 1.363185 -38.060745 1.626029 -38.438782 -19.267727 1.833891 1.462764 -1.0 0.0 0.0 -76.301918 -27.337959 -55.163563 137.899902 2.09326 2.062521 -29.297766 6.397087 -34.137615 -12.778957 0.737819 0.209389 -1.000005 0.0 -1e-06 
